<svg xmlns="http://www.w3.org/2000/svg" xmlns:xlink="http://www.w3.org/1999/xlink" width="34.166" height="33.261" viewBox="0 0 34.166 33.261">
  <defs>
    <linearGradient id="linear-gradient" x1="0.5" x2="0.5" y2="1" gradientUnits="objectBoundingBox">
      <stop offset="0" stop-color="#8ef8cc"/>
      <stop offset="1" stop-color="#ffb2fd"/>
    </linearGradient>
  </defs>
  <path id="Path_3" data-name="Path 3" d="M19.46,2.831a17.076,17.076,0,0,0-5.642,33.2c.9.225.76-.412.76-.847V32.222c-5.18.607-5.39-2.821-5.737-3.393-.7-1.2-2.363-1.5-1.867-2.076,1.179-.607,2.382.153,3.775,2.21,1.008,1.492,2.973,1.241,3.97.992a4.814,4.814,0,0,1,1.325-2.321c-5.367-.962-7.6-4.237-7.6-8.13a7.514,7.514,0,0,1,1.844-5.027,6.659,6.659,0,0,1,.187-4.58c2.218-.2,4.523,1.588,4.7,1.729a16.581,16.581,0,0,1,4.309-.519,16.6,16.6,0,0,1,4.332.531c.431-.328,2.569-1.863,4.63-1.676a6.705,6.705,0,0,1,.21,4.5,7.517,7.517,0,0,1,1.867,5.05c0,3.9-2.252,7.18-7.634,8.126a4.866,4.866,0,0,1,1.454,3.474v4.294c.031.344,0,.683.573.683A17.077,17.077,0,0,0,19.46,2.831Z" transform="translate(-2.375 -2.831)" fill="url(#linear-gradient)"/>
</svg>
