<svg xmlns="http://www.w3.org/2000/svg" xmlns:xlink="http://www.w3.org/1999/xlink" width="36" height="31.886" viewBox="0 0 36 31.886">
  <defs>
    <linearGradient id="linear-gradient" x1="0.5" x2="0.5" y2="1" gradientUnits="objectBoundingBox">
      <stop offset="0" stop-color="#8ff6cc"/>
      <stop offset="1" stop-color="#fcb3fa"/>
    </linearGradient>
  </defs>
  <path id="Path_2" data-name="Path 2" d="M39,103.787a13.834,13.834,0,0,1-4.249,1.246A7.936,7.936,0,0,0,38,100.6a13.857,13.857,0,0,1-4.681,1.944,7.4,7.4,0,0,0-2.453-1.883A6.845,6.845,0,0,0,27.925,100c-4.088,0-7.377,3.613-7.377,8.047a10.036,10.036,0,0,0,.182,1.844,20.448,20.448,0,0,1-15.212-8.419,8.545,8.545,0,0,0-1,4.061,8.262,8.262,0,0,0,3.288,6.7,6.978,6.978,0,0,1-3.336-1.024v.1a7.9,7.9,0,0,0,5.914,7.9,7.2,7.2,0,0,1-1.943.274,8.994,8.994,0,0,1-1.393-.122,7.5,7.5,0,0,0,6.9,5.58,14.028,14.028,0,0,1-9.159,3.439,13.914,13.914,0,0,1-1.782-.1,19.655,19.655,0,0,0,11.331,3.608c13.568,0,20.992-12.254,20.992-22.891,0-.349,0-.7-.022-1.047A16.744,16.744,0,0,0,39,103.787Z" transform="translate(-3 -100)" fill="url(#linear-gradient)"/>
</svg>
