<svg xmlns="http://www.w3.org/2000/svg" width="44.998" height="44.998" viewBox="0 0 44.998 44.998">
  <path id="Icon_awesome-arrow-circle-down" data-name="Icon awesome-arrow-circle-down" d="M45.56,23.061a22.5,22.5,0,1,1-22.5-22.5A22.5,22.5,0,0,1,45.56,23.061ZM32.533,20.44l-6.568,6.849V10.723a2.172,2.172,0,0,0-2.177-2.177H22.336a2.172,2.172,0,0,0-2.177,2.177V27.289L13.59,20.44a2.18,2.18,0,0,0-3.112-.036l-.989,1a2.168,2.168,0,0,0,0,3.075l12.03,12.039a2.168,2.168,0,0,0,3.075,0L36.633,24.477a2.168,2.168,0,0,0,0-3.075l-.989-1a2.18,2.18,0,0,0-3.112.036Z" transform="translate(-0.563 -0.563)" fill="#cffae4"/>
</svg>
